<svg width="326" height="131" viewBox="0 0 326 131" fill="none" xmlns="http://www.w3.org/2000/svg">
<g clip-path="url(#clip0_1102_1110)">
<g clip-path="url(#clip1_1102_1110)">
<rect width="326" height="131" rx="10" fill="url(#paint0_linear_1102_1110)"/>
<path opacity="0.25" d="M256.035 160C305.14 160 344.947 150.731 344.947 139.297C344.947 127.863 305.14 118.594 256.035 118.594C206.931 118.594 167.124 127.863 167.124 139.297C167.124 150.731 206.931 160 256.035 160Z" fill="#042030"/>
<path d="M325.667 39.3868L256.035 63.1985L186.333 39.3868L153 87.8582L256.035 123.117L359 87.8582L325.667 39.3868Z" fill="#4E2999"/>
<path opacity="0.45" d="M165.147 85.8798L250.598 118.594L221.219 89.4833C221.219 89.4833 172.986 77.8247 165.147 85.8798Z" fill="#240F4F"/>
<path opacity="0.45" d="M346.924 85.8798L261.473 118.594L290.851 89.4833C290.781 89.4833 339.014 77.8247 346.924 85.8798Z" fill="#240F4F"/>
<path d="M256.035 123.117L153 87.8582V92.451L256.035 127.709L359 92.451V87.8582L256.035 123.117Z" fill="#994EF8"/>
<path d="M201.163 144.314L213.098 113.012L251.516 126.155L201.163 144.314Z" fill="#3B1E77"/>
<path opacity="0.45" d="M204.482 135.27L251.516 126.155L213.098 113.012L204.482 135.27Z" fill="#3B1E77"/>
<path d="M256.035 124.53L201.163 144.314L205.259 148.624L256.035 130.536L306.741 148.624L310.907 144.314L256.035 124.53Z" fill="#994EF8"/>
<path d="M310.907 144.314L298.902 113.012L260.484 126.155L310.907 144.314Z" fill="#3B1E77"/>
<path opacity="0.45" d="M307.518 135.27L260.484 126.155L298.902 113.012L307.518 135.27Z" fill="#3B1E77"/>
<path d="M256.035 130.536C258.102 130.536 259.778 128.859 259.778 126.791C259.778 124.723 258.102 123.046 256.035 123.046C253.968 123.046 252.292 124.723 252.292 126.791C252.292 128.859 253.968 130.536 256.035 130.536Z" fill="white" fill-opacity="0.5"/>
<path d="M322.701 39.3868L256.035 72.5961L189.37 39.3868C186.333 43.4143 161.898 84.184 161.898 84.184C162.181 84.184 162.393 84.2546 162.675 84.2546C223.974 90.4019 240.993 109.692 246.643 114.355C252.292 119.089 256.106 118.594 256.106 118.594C256.106 118.594 259.919 119.089 265.569 114.355C271.219 109.692 288.238 90.4019 349.537 84.2546C349.819 84.2546 350.031 84.184 350.314 84.184C350.172 84.184 325.667 43.485 322.701 39.3868Z" fill="#F5B304"/>
<path d="M350.172 84.184C349.89 84.184 349.678 84.2546 349.396 84.2546C288.097 90.4019 271.077 109.692 265.428 114.355C259.778 119.089 255.965 118.594 255.965 118.594C255.965 118.594 252.151 119.089 246.502 114.355C240.852 109.692 223.832 90.4019 162.534 84.2546C162.251 84.2546 162.039 84.184 161.757 84.184C161.263 84.9612 161.757 85.5265 161.757 85.5265C223.691 91.5324 240.146 110.893 245.795 115.627C251.445 120.29 255.894 119.937 255.894 119.937C255.894 119.937 260.343 120.29 265.993 115.627C271.642 110.963 288.097 91.6031 350.031 85.5265C350.172 85.5265 350.667 84.9612 350.172 84.184Z" fill="#994EF8"/>
<path d="M320.159 35.5006C286.049 27.3043 255.965 55.3555 255.965 55.3555C255.965 55.3555 225.88 27.3043 191.771 35.5006C191.771 35.5006 182.096 50.3388 168.748 75.5637C168.748 75.5637 235.908 83.1241 255.965 111.317C276.021 83.1241 343.181 75.5637 343.181 75.5637C329.834 50.3388 320.159 35.5006 320.159 35.5006Z" fill="#F5EFFB"/>
<path d="M343.181 75.5637C343.181 75.5637 276.021 83.1241 255.965 111.317C235.979 83.1241 168.819 75.5637 168.819 75.5637C168.819 75.5637 168.819 77.8247 165.076 82.2762C165.076 82.2762 226.022 86.657 248.196 111.953C253.422 117.888 255.965 117.181 255.965 117.181C255.965 117.181 258.578 117.888 263.733 111.953C285.837 86.657 346.853 82.2762 346.853 82.2762C343.181 77.7541 343.181 75.5637 343.181 75.5637Z" fill="#DFCBF4"/>
<path d="M316.345 38.4682C316.345 38.4682 290.851 31.9677 255.965 59.0297C221.149 32.0384 195.584 38.4682 195.584 38.4682L178.353 71.9602C230.753 75.5637 255.965 102.06 255.965 102.06C255.965 102.06 281.176 75.5637 333.577 71.9602L316.345 38.4682ZM256.035 98.8808C256.035 98.8808 232.448 74.7158 182.449 69.9817L196.926 39.8814C196.926 39.8814 221.996 35.006 256.035 60.5842C290.074 35.006 315.145 39.8814 315.145 39.8814L329.622 69.9817C279.623 74.7158 256.035 98.8808 256.035 98.8808Z" fill="#863ED5"/>
<path opacity="0.2" d="M262.462 84.2502C271.878 77.3022 301.303 61.9267 321.077 64.0464" stroke="#863ED5" stroke-width="3" stroke-linecap="round"/>
<path opacity="0.2" d="M262.462 64.753C270.819 58.2063 292.546 45.3792 312.602 46.4444" stroke="#863ED5" stroke-width="3" stroke-linecap="round"/>
<path opacity="0.2" d="M262.462 74.6451C271.525 67.5948 295.088 53.781 316.84 54.9282" stroke="#863ED5" stroke-width="3" stroke-linecap="round"/>
<path opacity="0.2" d="M250.456 84.2502C241.04 77.3022 211.615 61.9267 191.841 64.0464" stroke="#863ED5" stroke-width="3" stroke-linecap="round"/>
<path opacity="0.2" d="M250.456 64.753C242.1 58.2063 220.372 45.3792 200.316 46.4444" stroke="#863ED5" stroke-width="3" stroke-linecap="round"/>
<path opacity="0.2" d="M250.456 74.6451C241.393 67.5948 217.83 53.781 196.079 54.9282" stroke="#863ED5" stroke-width="3" stroke-linecap="round"/>
<path d="M256.035 55.3555C256.035 55.3555 256.742 52.8825 258.083 53.5891C258.083 53.5891 257.236 93.6521 258.648 109.268C259.001 113.154 262.391 118.453 263.733 120.432H261.967L261.473 122.057C261.473 122.057 256.247 113.224 256.035 109.762C254.976 94.2174 255.541 59.1004 256.035 55.3555Z" fill="#54DAF5"/>
</g>
<path d="M28.892 77.444H23.798L22.898 80H20.216L24.896 67.436H27.794L32.456 80H29.774L28.892 77.444ZM28.208 75.518L26.336 70.154L24.464 75.518H28.208ZM36.3638 66.68V80H33.8258V66.68H36.3638ZM45.1218 72.53V74.636H37.4718V72.53H45.1218ZM55.9657 67.292V69.308H50.6197V72.71H54.9037V74.654H50.6197V80H48.0817V67.292H55.9657ZM61.5853 69.902C62.4253 69.902 63.1453 70.1 63.7453 70.496C64.3453 70.892 64.7713 71.426 65.0233 72.098V70.028H67.5433V80H65.0233V77.912C64.7713 78.584 64.3453 79.124 63.7453 79.532C63.1453 79.928 62.4253 80.126 61.5853 80.126C60.7453 80.126 59.9893 79.922 59.3173 79.514C58.6453 79.106 58.1173 78.518 57.7333 77.75C57.3613 76.97 57.1753 76.058 57.1753 75.014C57.1753 73.97 57.3613 73.064 57.7333 72.296C58.1173 71.516 58.6453 70.922 59.3173 70.514C59.9893 70.106 60.7453 69.902 61.5853 69.902ZM62.3773 72.116C61.5853 72.116 60.9493 72.374 60.4693 72.89C59.9893 73.406 59.7493 74.114 59.7493 75.014C59.7493 75.914 59.9893 76.622 60.4693 77.138C60.9493 77.642 61.5853 77.894 62.3773 77.894C63.1453 77.894 63.7753 77.636 64.2673 77.12C64.7713 76.592 65.0233 75.89 65.0233 75.014C65.0233 74.126 64.7713 73.424 64.2673 72.908C63.7753 72.38 63.1453 72.116 62.3773 72.116ZM75.1714 77.822V80H73.8394C72.7234 80 71.8654 79.73 71.2654 79.19C70.6774 78.65 70.3834 77.75 70.3834 76.49V72.17H68.9974V70.028H70.3834V67.562H72.9214V70.028H75.1534V72.17H72.9214V76.526C72.9214 77.006 73.0174 77.342 73.2094 77.534C73.4014 77.726 73.7254 77.822 74.1814 77.822H75.1714ZM76.7097 67.166C76.7097 66.758 76.8537 66.428 77.1417 66.176C77.4297 65.912 77.8077 65.78 78.2757 65.78C78.7437 65.78 79.1217 65.912 79.4097 66.176C79.6977 66.428 79.8417 66.758 79.8417 67.166C79.8417 67.562 79.6977 67.892 79.4097 68.156C79.1217 68.408 78.7437 68.534 78.2757 68.534C77.8077 68.534 77.4297 68.408 77.1417 68.156C76.8537 67.892 76.7097 67.562 76.7097 67.166ZM79.5357 70.028V80H76.9977V70.028H79.5357ZM85.7377 69.902C86.5777 69.902 87.2977 70.1 87.8977 70.496C88.4977 70.892 88.9237 71.426 89.1757 72.098V70.028H91.6957V80H89.1757V77.912C88.9237 78.584 88.4977 79.124 87.8977 79.532C87.2977 79.928 86.5777 80.126 85.7377 80.126C84.8977 80.126 84.1417 79.922 83.4697 79.514C82.7977 79.106 82.2697 78.518 81.8857 77.75C81.5137 76.97 81.3277 76.058 81.3277 75.014C81.3277 73.97 81.5137 73.064 81.8857 72.296C82.2697 71.516 82.7977 70.922 83.4697 70.514C84.1417 70.106 84.8977 69.902 85.7377 69.902ZM86.5297 72.116C85.7377 72.116 85.1017 72.374 84.6217 72.89C84.1417 73.406 83.9017 74.114 83.9017 75.014C83.9017 75.914 84.1417 76.622 84.6217 77.138C85.1017 77.642 85.7377 77.894 86.5297 77.894C87.2977 77.894 87.9277 77.636 88.4197 77.12C88.9237 76.592 89.1757 75.89 89.1757 75.014C89.1757 74.126 88.9237 73.424 88.4197 72.908C87.9277 72.38 87.2977 72.116 86.5297 72.116ZM99.9358 69.884C101.088 69.884 102.006 70.262 102.69 71.018C103.374 71.774 103.716 72.836 103.716 74.204V80H101.196V74.492C101.196 73.7 100.992 73.088 100.584 72.656C100.176 72.212 99.6178 71.99 98.9098 71.99C98.1898 71.99 97.6138 72.224 97.1818 72.692C96.7498 73.16 96.5338 73.832 96.5338 74.708V80H93.9958V66.68H96.5338V72.026C96.7978 71.354 97.2298 70.832 97.8298 70.46C98.4418 70.076 99.1438 69.884 99.9358 69.884Z" fill="white"/>
<path opacity="0.8" d="M26.804 103.718H22.464L21.638 106H20.266L23.92 96.312H25.362L29.002 106H27.63L26.804 103.718ZM26.44 102.724L24.634 97.74L22.828 102.724H26.44ZM30.8235 98.314L33.3155 104.362L35.6255 98.314H37.0395L32.4755 109.64H31.0335L32.6295 105.874L29.3955 98.314H30.8235ZM41.3575 98.216C42.1042 98.216 42.7342 98.4027 43.2475 98.776C43.7702 99.1493 44.1342 99.6487 44.3395 100.274V98.314H45.6135V106H44.3395V104.04C44.1342 104.665 43.7702 105.165 43.2475 105.538C42.7342 105.911 42.1042 106.098 41.3575 106.098C40.6762 106.098 40.0695 105.939 39.5375 105.622C39.0055 105.305 38.5855 104.852 38.2775 104.264C37.9789 103.667 37.8295 102.967 37.8295 102.164C37.8295 101.361 37.9789 100.661 38.2775 100.064C38.5855 99.4667 39.0055 99.0093 39.5375 98.692C40.0695 98.3747 40.6762 98.216 41.3575 98.216ZM41.7215 99.35C40.9375 99.35 40.3075 99.602 39.8315 100.106C39.3649 100.601 39.1315 101.287 39.1315 102.164C39.1315 103.041 39.3649 103.732 39.8315 104.236C40.3075 104.731 40.9375 104.978 41.7215 104.978C42.2255 104.978 42.6735 104.861 43.0655 104.628C43.4669 104.395 43.7795 104.068 44.0035 103.648C44.2275 103.219 44.3395 102.724 44.3395 102.164C44.3395 101.604 44.2275 101.109 44.0035 100.68C43.7795 100.251 43.4669 99.924 43.0655 99.7C42.6735 99.4667 42.2255 99.35 41.7215 99.35ZM51.6871 98.188C52.5831 98.188 53.3065 98.4773 53.8571 99.056C54.4078 99.6253 54.6831 100.451 54.6831 101.534V106H53.4091V101.646C53.4091 100.881 53.2131 100.293 52.8211 99.882C52.4291 99.4713 51.8971 99.266 51.2251 99.266C50.5251 99.266 49.9651 99.4947 49.5451 99.952C49.1251 100.4 48.9151 101.058 48.9151 101.926V106H47.6411V95.64H48.9151V100.134C49.1111 99.5087 49.4565 99.028 49.9511 98.692C50.4551 98.356 51.0338 98.188 51.6871 98.188ZM67.7682 106H66.4942L61.3702 98.202V106H60.0962V96.13H61.3702L66.4942 103.942V96.13H67.7682V106ZM73.3029 98.216C74.0403 98.216 74.6983 98.3747 75.2769 98.692C75.8649 99.0093 76.3223 99.4667 76.6489 100.064C76.9849 100.661 77.1529 101.361 77.1529 102.164C77.1529 102.967 76.9849 103.667 76.6489 104.264C76.3223 104.852 75.8649 105.305 75.2769 105.622C74.6983 105.939 74.0403 106.098 73.3029 106.098C72.5656 106.098 71.9029 105.939 71.3149 105.622C70.7363 105.305 70.2789 104.852 69.9429 104.264C69.6069 103.667 69.4389 102.967 69.4389 102.164C69.4389 101.361 69.6069 100.661 69.9429 100.064C70.2789 99.4667 70.7363 99.0093 71.3149 98.692C71.9029 98.3747 72.5656 98.216 73.3029 98.216ZM73.3029 99.336C72.8456 99.336 72.4209 99.4387 72.0289 99.644C71.6463 99.8493 71.3336 100.167 71.0909 100.596C70.8576 101.016 70.7409 101.539 70.7409 102.164C70.7409 102.78 70.8576 103.303 71.0909 103.732C71.3336 104.152 71.6463 104.465 72.0289 104.67C72.4209 104.875 72.8456 104.978 73.3029 104.978C73.7603 104.978 74.1803 104.875 74.5629 104.67C74.9549 104.465 75.2676 104.152 75.5009 103.732C75.7436 103.303 75.8649 102.78 75.8649 102.164C75.8649 101.539 75.7436 101.016 75.5009 100.596C75.2676 100.167 74.9549 99.8493 74.5629 99.644C74.1803 99.4387 73.7603 99.336 73.3029 99.336ZM79.919 98.454V99.952H78.379V98.454H79.919ZM79.919 104.502V106H78.379V104.502H79.919ZM84.1117 97.32V96.13H86.9397V106H85.5957V97.32H84.1117Z" fill="white"/>
<g clip-path="url(#clip2_1102_1110)">
<g clip-path="url(#clip3_1102_1110)">
<path d="M38.3437 22.2256H33.4894C32.6779 22.2251 31.8905 22.5009 31.2568 23.0077C30.6231 23.5145 30.1809 24.2221 30.0031 25.0138C29.8249 24.2223 29.3826 23.515 28.749 23.0083C28.1154 22.5015 27.3282 22.2255 26.5169 22.2256H21.6662C21.2242 22.2258 20.8003 22.4015 20.4878 22.714C20.1752 23.0266 19.9995 23.4505 19.9994 23.8925V32.4275C19.9995 32.8695 20.1752 33.2934 20.4878 33.606C20.8003 33.9185 21.2242 34.0942 21.6662 34.0944H24.7806C28.3294 34.0944 29.3881 34.9413 29.895 36.6988C29.9194 36.7963 30.0756 36.7963 30.1031 36.6988C30.6137 34.9419 31.6725 34.0944 35.2175 34.0944H38.3319C38.7739 34.0942 39.1978 33.9185 39.5103 33.606C39.8229 33.2934 39.9986 32.8695 39.9987 32.4275V23.8963C39.9987 23.4557 39.8247 23.033 39.5145 22.7202C39.2043 22.4074 38.783 22.2299 38.3425 22.2263L38.3437 22.2256ZM28.4025 31.4406C28.4027 31.4566 28.3996 31.4724 28.3936 31.4872C28.3876 31.502 28.3786 31.5154 28.3673 31.5267C28.3561 31.538 28.3426 31.547 28.3278 31.553C28.313 31.559 28.2972 31.562 28.2812 31.5619H22.715C22.699 31.562 22.6832 31.5589 22.6685 31.5528C22.6537 31.5468 22.6403 31.5378 22.6291 31.5266C22.6178 31.5153 22.6089 31.5019 22.6028 31.4871C22.5967 31.4724 22.5937 31.4566 22.5937 31.4406V30.6456C22.5937 30.58 22.6456 30.5244 22.715 30.5244H28.2844C28.35 30.5244 28.4056 30.5763 28.4056 30.6456V31.4406H28.4025ZM28.4025 29.3263C28.4026 29.3422 28.3995 29.358 28.3934 29.3728C28.3874 29.3875 28.3784 29.4009 28.3672 29.4122C28.3559 29.4235 28.3425 29.4324 28.3277 29.4384C28.313 29.4445 28.2972 29.4476 28.2812 29.4475H22.715C22.699 29.4476 22.6832 29.4445 22.6685 29.4384C22.6537 29.4324 22.6403 29.4235 22.6291 29.4122C22.6178 29.4009 22.6089 29.3875 22.6028 29.3728C22.5967 29.358 22.5937 29.3422 22.5937 29.3263V28.5313C22.5937 28.465 22.6456 28.41 22.715 28.41H28.2844C28.35 28.41 28.4056 28.4619 28.4056 28.5313V29.3263H28.4025ZM28.4025 27.2119C28.4026 27.2278 28.3995 27.2436 28.3934 27.2584C28.3874 27.2731 28.3784 27.2865 28.3672 27.2978C28.3559 27.3091 28.3425 27.318 28.3277 27.3241C28.313 27.3301 28.2972 27.3332 28.2812 27.3331H22.715C22.699 27.3332 22.6832 27.3301 22.6685 27.3241C22.6537 27.318 22.6403 27.3091 22.6291 27.2978C22.6178 27.2865 22.6089 27.2731 22.6028 27.2584C22.5967 27.2436 22.5937 27.2278 22.5937 27.2119V26.4169C22.5937 26.3513 22.6456 26.2956 22.715 26.2956H28.2844C28.35 26.2956 28.4056 26.3475 28.4056 26.4169V27.2119H28.4025ZM37.4062 31.4375C37.4063 31.4535 37.4032 31.4693 37.3972 31.484C37.3911 31.4988 37.3822 31.5122 37.3709 31.5234C37.3596 31.5347 37.3462 31.5436 37.3315 31.5497C37.3167 31.5558 37.3009 31.5588 37.285 31.5588H31.7187C31.7028 31.5588 31.687 31.5558 31.6722 31.5497C31.6575 31.5436 31.6441 31.5347 31.6328 31.5234C31.6215 31.5122 31.6126 31.4988 31.6065 31.484C31.6005 31.4693 31.5974 31.4535 31.5975 31.4375V30.6425C31.5975 30.5769 31.6494 30.5213 31.7187 30.5213H37.2881C37.3544 30.5213 37.4094 30.5731 37.4094 30.6425V31.4375H37.4062ZM37.4062 29.3231C37.4064 29.3391 37.4034 29.3549 37.3973 29.3697C37.3913 29.3845 37.3824 29.3979 37.3711 29.4092C37.3598 29.4205 37.3464 29.4295 37.3316 29.4355C37.3168 29.4415 37.301 29.4445 37.285 29.4444H31.7187C31.7028 29.4445 31.687 29.4414 31.6722 29.4353C31.6575 29.4293 31.6441 29.4203 31.6328 29.4091C31.6215 29.3978 31.6126 29.3844 31.6065 29.3696C31.6005 29.3549 31.5974 29.3391 31.5975 29.3231V28.5281C31.5975 28.4625 31.6494 28.4069 31.7187 28.4069H37.2881C37.3544 28.4069 37.4094 28.4588 37.4094 28.5281V29.3231H37.4062ZM37.4062 27.2081C37.4063 27.2241 37.4032 27.2399 37.3972 27.2546C37.3911 27.2694 37.3822 27.2828 37.3709 27.2941C37.3596 27.3053 37.3462 27.3143 37.3315 27.3203C37.3167 27.3264 37.3009 27.3295 37.285 27.3294H31.7187C31.7028 27.3295 31.687 27.3264 31.6722 27.3203C31.6575 27.3143 31.6441 27.3053 31.6328 27.2941C31.6215 27.2828 31.6126 27.2694 31.6065 27.2546C31.6005 27.2399 31.5974 27.2241 31.5975 27.2081V26.4163C31.5975 26.3506 31.6494 26.295 31.7187 26.295H37.2881C37.3544 26.295 37.4094 26.3469 37.4094 26.4163V27.2081H37.4062Z" fill="white"/>
</g>
<path d="M50.562 32.754H53.978V34H48.966V24.116H50.562V32.754ZM58.3217 26.188C59.0217 26.188 59.6191 26.3607 60.1137 26.706C60.6084 27.0513 60.9584 27.5087 61.1637 28.078V26.286H62.7597V34H61.1637V32.208C60.9584 32.7773 60.6084 33.2347 60.1137 33.58C59.6191 33.9253 59.0217 34.098 58.3217 34.098C57.6497 34.098 57.0477 33.9393 56.5157 33.622C55.9931 33.3047 55.5824 32.8473 55.2837 32.25C54.9851 31.6527 54.8357 30.948 54.8357 30.136C54.8357 29.3333 54.9851 28.6333 55.2837 28.036C55.5824 27.4387 55.9931 26.9813 56.5157 26.664C57.0477 26.3467 57.6497 26.188 58.3217 26.188ZM58.8117 27.588C58.1024 27.588 57.5331 27.8167 57.1037 28.274C56.6837 28.722 56.4737 29.3427 56.4737 30.136C56.4737 30.9293 56.6837 31.5547 57.1037 32.012C57.5331 32.46 58.1024 32.684 58.8117 32.684C59.2597 32.684 59.6611 32.5813 60.0157 32.376C60.3704 32.1613 60.6504 31.8627 60.8557 31.48C61.0611 31.0973 61.1637 30.6493 61.1637 30.136C61.1637 29.632 61.0611 29.1887 60.8557 28.806C60.6504 28.414 60.3704 28.1153 60.0157 27.91C59.6611 27.6953 59.2597 27.588 58.8117 27.588ZM67.209 26.188C68.1143 26.188 68.8377 26.4213 69.379 26.888C69.9297 27.3453 70.2657 27.9613 70.387 28.736H68.875C68.8097 28.316 68.6277 27.98 68.329 27.728C68.0397 27.4667 67.6523 27.336 67.167 27.336C66.7657 27.336 66.453 27.434 66.229 27.63C66.0143 27.8167 65.907 28.0733 65.907 28.4C65.907 28.6427 65.9863 28.8387 66.145 28.988C66.3037 29.1373 66.4997 29.254 66.733 29.338C66.9757 29.422 67.3163 29.5153 67.755 29.618C68.3337 29.7487 68.8003 29.884 69.155 30.024C69.519 30.164 69.827 30.388 70.079 30.696C70.3403 30.9947 70.471 31.4053 70.471 31.928C70.471 32.572 70.2237 33.0947 69.729 33.496C69.2437 33.8973 68.5857 34.098 67.755 34.098C66.7937 34.098 66.0143 33.874 65.417 33.426C64.829 32.978 64.4743 32.3527 64.353 31.55H65.907C65.9537 31.97 66.1403 32.3107 66.467 32.572C66.7937 32.8333 67.223 32.964 67.755 32.964C68.1377 32.964 68.4363 32.866 68.651 32.67C68.875 32.4647 68.987 32.208 68.987 31.9C68.987 31.6293 68.903 31.4147 68.735 31.256C68.567 31.0973 68.357 30.976 68.105 30.892C67.853 30.7987 67.5077 30.7053 67.069 30.612C66.509 30.4813 66.0517 30.3507 65.697 30.22C65.3517 30.0893 65.053 29.8793 64.801 29.59C64.5583 29.2913 64.437 28.89 64.437 28.386C64.437 27.7327 64.6797 27.2053 65.165 26.804C65.6597 26.3933 66.341 26.188 67.209 26.188ZM75.9495 32.614V34H74.9695C74.1481 34 73.5228 33.804 73.0935 33.412C72.6735 33.0107 72.4635 32.348 72.4635 31.424V27.644H71.3575V26.286H72.4635V24.368H74.0735V26.286H75.9355V27.644H74.0735V31.452C74.0735 31.8907 74.1528 32.194 74.3115 32.362C74.4795 32.53 74.7688 32.614 75.1795 32.614H75.9495ZM85.9198 34L83.4558 30.052H82.3218V34H80.7258V24.116H84.2118C85.3411 24.116 86.1951 24.3913 86.7738 24.942C87.3618 25.4927 87.6558 26.2207 87.6558 27.126C87.6558 27.9007 87.4364 28.5353 86.9978 29.03C86.5684 29.5247 85.9431 29.842 85.1218 29.982L87.7118 34H85.9198ZM82.3218 28.918H84.0858C85.3738 28.918 86.0178 28.3487 86.0178 27.21C86.0178 26.6687 85.8591 26.2487 85.5418 25.95C85.2338 25.642 84.7484 25.488 84.0858 25.488H82.3218V28.918ZM96.261 29.772C96.261 30.0333 96.2423 30.262 96.205 30.458H90.269C90.297 31.2513 90.5163 31.8393 90.927 32.222C91.3376 32.6047 91.8463 32.796 92.453 32.796C92.985 32.796 93.433 32.6607 93.797 32.39C94.1703 32.1193 94.399 31.76 94.483 31.312H96.191C96.0883 31.8533 95.8736 32.334 95.547 32.754C95.2203 33.174 94.7956 33.5053 94.273 33.748C93.7503 33.9813 93.167 34.098 92.523 34.098C91.7763 34.098 91.1136 33.9393 90.535 33.622C89.9656 33.3047 89.5176 32.8473 89.191 32.25C88.8643 31.6527 88.701 30.948 88.701 30.136C88.701 29.3333 88.8643 28.6333 89.191 28.036C89.5176 27.4387 89.9656 26.9813 90.535 26.664C91.1136 26.3467 91.7763 26.188 92.523 26.188C93.279 26.188 93.937 26.3467 94.497 26.664C95.0663 26.972 95.5003 27.4013 95.799 27.952C96.107 28.4933 96.261 29.1 96.261 29.772ZM94.651 29.73C94.6696 29.226 94.581 28.806 94.385 28.47C94.1983 28.1247 93.937 27.8727 93.601 27.714C93.2743 27.546 92.915 27.462 92.523 27.462C91.8976 27.462 91.375 27.6533 90.955 28.036C90.535 28.4187 90.3063 28.9833 90.269 29.73H94.651ZM100.896 26.188C101.596 26.188 102.193 26.3607 102.688 26.706C103.183 27.0513 103.533 27.5087 103.738 28.078V26.286H105.334V34H103.738V32.208C103.533 32.7773 103.183 33.2347 102.688 33.58C102.193 33.9253 101.596 34.098 100.896 34.098C100.224 34.098 99.6219 33.9393 99.0899 33.622C98.5673 33.3047 98.1566 32.8473 97.8579 32.25C97.5593 31.6527 97.4099 30.948 97.4099 30.136C97.4099 29.3333 97.5593 28.6333 97.8579 28.036C98.1566 27.4387 98.5673 26.9813 99.0899 26.664C99.6219 26.3467 100.224 26.188 100.896 26.188ZM101.386 27.588C100.677 27.588 100.107 27.8167 99.6779 28.274C99.2579 28.722 99.0479 29.3427 99.0479 30.136C99.0479 30.9293 99.2579 31.5547 99.6779 32.012C100.107 32.46 100.677 32.684 101.386 32.684C101.834 32.684 102.235 32.5813 102.59 32.376C102.945 32.1613 103.225 31.8627 103.43 31.48C103.635 31.0973 103.738 30.6493 103.738 30.136C103.738 29.632 103.635 29.1887 103.43 28.806C103.225 28.414 102.945 28.1153 102.59 27.91C102.235 27.6953 101.834 27.588 101.386 27.588ZM110.343 26.188C111.043 26.188 111.641 26.3607 112.135 26.706C112.63 27.0513 112.975 27.5087 113.171 28.078V23.64H114.781V34H113.171V32.208C112.975 32.7773 112.63 33.2347 112.135 33.58C111.641 33.9253 111.043 34.098 110.343 34.098C109.671 34.098 109.069 33.9393 108.537 33.622C108.015 33.3047 107.604 32.8473 107.305 32.25C107.007 31.6527 106.857 30.948 106.857 30.136C106.857 29.3333 107.007 28.6333 107.305 28.036C107.604 27.4387 108.015 26.9813 108.537 26.664C109.069 26.3467 109.671 26.188 110.343 26.188ZM110.833 27.588C110.124 27.588 109.555 27.8167 109.125 28.274C108.705 28.722 108.495 29.3427 108.495 30.136C108.495 30.9293 108.705 31.5547 109.125 32.012C109.555 32.46 110.124 32.684 110.833 32.684C111.281 32.684 111.683 32.5813 112.037 32.376C112.392 32.1613 112.672 31.8627 112.877 31.48C113.083 31.0973 113.185 30.6493 113.185 30.136C113.185 29.632 113.083 29.1887 112.877 28.806C112.672 28.414 112.392 28.1153 112.037 27.91C111.683 27.6953 111.281 27.588 110.833 27.588Z" fill="white"/>
</g>
</g>
<defs>
<linearGradient id="paint0_linear_1102_1110" x1="0" y1="0" x2="90.6452" y2="225.575" gradientUnits="userSpaceOnUse">
<stop stop-color="#DF98FA"/>
<stop offset="1" stop-color="#9055FF"/>
</linearGradient>
<clipPath id="clip0_1102_1110">
<rect width="326" height="131" fill="white"/>
</clipPath>
<clipPath id="clip1_1102_1110">
<rect width="326" height="131" rx="10" fill="white"/>
</clipPath>
<clipPath id="clip2_1102_1110">
<rect width="107" height="21" fill="white" transform="translate(20 19)"/>
</clipPath>
<clipPath id="clip3_1102_1110">
<rect width="20" height="20" fill="white" transform="translate(20 19.5)"/>
</clipPath>
</defs>
</svg>
